# xmcd
#
# Track frame offsets:
#	150
#	13525
#	27586
#	45335
#	61191
#	79548
#	91564
#	107119
#	120100
#	136891
#	150648
#	163104
#
# Disc length: 2356 seconds
#
# Revision: 1
# Processed by: cddbd v1.5.2PL0 Copyright (c) Steve Scherf et al.
# Submitted via: audiograbber 1.83.01
#
DISCID=7e09320c
DTITLE=The Heartleys - The Heartleys
DYEAR=2008
DGENRE=Country
TTITLE0=No Mans Land
TTITLE1=Hands On My Heart
TTITLE2=Leaving Home
TTITLE3=Almost You
TTITLE4=Mr Sunshine
TTITLE5=Sweet As You
TTITLE6=So Right
TTITLE7=Facing The World
TTITLE8=Red High Heels
TTITLE9=When I Think About Angels
TTITLE10=Up The Wall
TTITLE11=Better Be Home Soon
EXTD=
EXTT0=
EXTT1=
EXTT2=
EXTT3=
EXTT4=
EXTT5=
EXTT6=
EXTT7=
EXTT8=
EXTT9=
EXTT10=
EXTT11=
PLAYORDER=
